# xmcd
#
# Track frame offsets:
#	150
#	14019
#	28264
#	45961
#	59362
#	69175
#	85404
#	102177
#	114402
#	132231
#	145528
#	161373
#	173850
#	193499
#	205464
#	216809
#	236470
#	250151
#	261416
#
# Disc length: 3836 seconds
#
# Revision: 1
# Processed by: cddbd v1.5.2PL0 Copyright (c) Steve Scherf et al.
# Submitted via: audiograbber 1.83.01
#
DISCID=110efa13
DTITLE=Diamond Back of Texas - Diamond Back of Texas 012
DYEAR=2007
DGENRE=Country and Western
TTITLE0=William Ray - The Ghost Of Hank
TTITLE1=Ray Sanders - Beer Dinking Music
TTITLE2=Judy Kanyo - Before Your Love
TTITLE3=Bruce Greaves - I Want To Wake Up Next To You
TTITLE4=Terry Robichaud, Smith - Love Is Like A Merry Go Round
TTITLE5=Colean McKillop - Vision Of Love
TTITLE6=Julie Maners - After All These Years
TTITLE7=B. Jeff Stone - Particia's Song
TTITLE8=Vernon Oxford - There's An Angel Standing There
TTITLE9=Mitch Snow - Unspoken Words
TTITLE10=Suzie Merwine - Cajun Fiddle Blues
TTITLE11=Mak Kaylor - Nailed By My Dell
TTITLE12=Captain 'T' (Tom Hunnicutt) - The Arkansas Delta Blues
TTITLE13=Mik Kovar - Only Have 24 Hours
TTITLE14=Dr. Clifford Fry - Fat Farm
TTITLE15=Terry Robichaud, Smith - I Can't Blame You
TTITLE16=Andy Martin - The Way I Fell For You
TTITLE17=Bruce Greaves - Moonlight And Roses
TTITLE18=B. Jeff Stone - Honey Do
EXTD=
EXTT0=
EXTT1=
EXTT2=
EXTT3=
EXTT4=
EXTT5=
EXTT6=
EXTT7=
EXTT8=
EXTT9=
EXTT10=
EXTT11=
EXTT12=
EXTT13=
EXTT14=
EXTT15=
EXTT16=
EXTT17=
EXTT18=
PLAYORDER=
